<mxfile host="app.diagrams.net" modified="2023-11-16T21:39:30.233Z" agent="Mozilla/5.0 (Macintosh; Intel Mac OS X 10_15_7) AppleWebKit/537.36 (KHTML, like Gecko) Chrome/119.0.0.0 Safari/537.36" etag="H-eQlPX_d0whQ0ZKxQoe" version="22.1.2" type="device">
  <diagram name="Page-1" id="e7e014a7-5840-1c2e-5031-d8a46d1fe8dd">
    <mxGraphModel dx="1194" dy="731" grid="1" gridSize="10" guides="1" tooltips="1" connect="1" arrows="1" fold="1" page="0" pageScale="1" pageWidth="1169" pageHeight="826" background="none" math="0" shadow="0">
      <root>
        <mxCell id="0" />
        <mxCell id="1" parent="0" />
        <mxCell id="9MT0wUyi_Ujmcg9wdDqL-41" value="Utilizador" style="shape=umlActor;verticalLabelPosition=bottom;verticalAlign=top;html=1;outlineConnect=0;rounded=1;sketch=1;curveFitting=1;jiggle=2;" parent="1" vertex="1">
          <mxGeometry x="60" y="130" width="30" height="60" as="geometry" />
        </mxCell>
        <mxCell id="9MT0wUyi_Ujmcg9wdDqL-54" value="" style="edgeStyle=orthogonalEdgeStyle;rounded=1;orthogonalLoop=1;jettySize=auto;html=1;entryX=0;entryY=0.5;entryDx=0;entryDy=0;sketch=1;curveFitting=1;jiggle=2;" parent="1" source="9MT0wUyi_Ujmcg9wdDqL-42" target="9MT0wUyi_Ujmcg9wdDqL-82" edge="1">
          <mxGeometry relative="1" as="geometry">
            <mxPoint x="415" y="35" as="targetPoint" />
          </mxGeometry>
        </mxCell>
        <mxCell id="9MT0wUyi_Ujmcg9wdDqL-55" value="Include" style="edgeLabel;html=1;align=center;verticalAlign=middle;resizable=0;points=[];rounded=1;sketch=1;curveFitting=1;jiggle=2;" parent="9MT0wUyi_Ujmcg9wdDqL-54" vertex="1" connectable="0">
          <mxGeometry x="-0.1771" y="-1" relative="1" as="geometry">
            <mxPoint x="9" y="-1" as="offset" />
          </mxGeometry>
        </mxCell>
        <mxCell id="9MT0wUyi_Ujmcg9wdDqL-42" value="Inserir Dados Corridas" style="ellipse;whiteSpace=wrap;html=1;rounded=1;sketch=1;curveFitting=1;jiggle=2;" parent="1" vertex="1">
          <mxGeometry x="220" y="27.5" width="120" height="50" as="geometry" />
        </mxCell>
        <mxCell id="9MT0wUyi_Ujmcg9wdDqL-43" value="" style="endArrow=classic;html=1;rounded=1;entryX=-0.003;entryY=0.595;entryDx=0;entryDy=0;entryPerimeter=0;sketch=1;curveFitting=1;jiggle=2;" parent="1" target="9MT0wUyi_Ujmcg9wdDqL-42" edge="1">
          <mxGeometry width="50" height="50" relative="1" as="geometry">
            <mxPoint x="110" y="159" as="sourcePoint" />
            <mxPoint x="210" y="90" as="targetPoint" />
          </mxGeometry>
        </mxCell>
        <mxCell id="9MT0wUyi_Ujmcg9wdDqL-86" value="" style="edgeStyle=orthogonalEdgeStyle;rounded=1;orthogonalLoop=1;jettySize=auto;html=1;sketch=1;curveFitting=1;jiggle=2;" parent="1" source="9MT0wUyi_Ujmcg9wdDqL-49" target="9MT0wUyi_Ujmcg9wdDqL-85" edge="1">
          <mxGeometry relative="1" as="geometry">
            <Array as="points">
              <mxPoint x="450" y="140" />
              <mxPoint x="450" y="140" />
            </Array>
          </mxGeometry>
        </mxCell>
        <mxCell id="9MT0wUyi_Ujmcg9wdDqL-89" value="Include" style="edgeLabel;html=1;align=center;verticalAlign=middle;resizable=0;points=[];rounded=1;sketch=1;curveFitting=1;jiggle=2;" parent="9MT0wUyi_Ujmcg9wdDqL-86" vertex="1" connectable="0">
          <mxGeometry x="-0.2553" y="1" relative="1" as="geometry">
            <mxPoint x="18" y="1" as="offset" />
          </mxGeometry>
        </mxCell>
        <mxCell id="9MT0wUyi_Ujmcg9wdDqL-49" value="Inserir Participantes" style="ellipse;whiteSpace=wrap;html=1;rounded=1;sketch=1;curveFitting=1;jiggle=2;" parent="1" vertex="1">
          <mxGeometry x="220" y="115" width="120" height="50" as="geometry" />
        </mxCell>
        <mxCell id="9MT0wUyi_Ujmcg9wdDqL-56" value="Definição da Grelha" style="ellipse;whiteSpace=wrap;html=1;rounded=1;sketch=1;curveFitting=1;jiggle=2;" parent="1" vertex="1">
          <mxGeometry x="220" y="200" width="120" height="50" as="geometry" />
        </mxCell>
        <mxCell id="9MT0wUyi_Ujmcg9wdDqL-101" value="" style="edgeStyle=orthogonalEdgeStyle;rounded=1;orthogonalLoop=1;jettySize=auto;html=1;sketch=1;curveFitting=1;jiggle=2;" parent="1" source="9MT0wUyi_Ujmcg9wdDqL-58" target="9MT0wUyi_Ujmcg9wdDqL-100" edge="1">
          <mxGeometry relative="1" as="geometry" />
        </mxCell>
        <mxCell id="9MT0wUyi_Ujmcg9wdDqL-102" value="include" style="edgeLabel;html=1;align=center;verticalAlign=middle;resizable=0;points=[];rounded=1;sketch=1;curveFitting=1;jiggle=2;" parent="9MT0wUyi_Ujmcg9wdDqL-101" vertex="1" connectable="0">
          <mxGeometry x="-0.2908" y="-2" relative="1" as="geometry">
            <mxPoint as="offset" />
          </mxGeometry>
        </mxCell>
        <mxCell id="9MT0wUyi_Ujmcg9wdDqL-58" value="Fim Corrida" style="ellipse;whiteSpace=wrap;html=1;rounded=1;sketch=1;curveFitting=1;jiggle=2;" parent="1" vertex="1">
          <mxGeometry x="220" y="363" width="120" height="50" as="geometry" />
        </mxCell>
        <mxCell id="9MT0wUyi_Ujmcg9wdDqL-76" value="" style="endArrow=classic;html=1;rounded=1;entryX=0;entryY=0.5;entryDx=0;entryDy=0;sketch=1;curveFitting=1;jiggle=2;" parent="1" target="9MT0wUyi_Ujmcg9wdDqL-49" edge="1">
          <mxGeometry width="50" height="50" relative="1" as="geometry">
            <mxPoint x="110" y="160" as="sourcePoint" />
            <mxPoint x="210" y="160" as="targetPoint" />
            <Array as="points" />
          </mxGeometry>
        </mxCell>
        <mxCell id="9MT0wUyi_Ujmcg9wdDqL-77" value="" style="endArrow=classic;html=1;rounded=1;entryX=0;entryY=0.4;entryDx=0;entryDy=0;entryPerimeter=0;sketch=1;curveFitting=1;jiggle=2;" parent="1" target="9MT0wUyi_Ujmcg9wdDqL-56" edge="1">
          <mxGeometry width="50" height="50" relative="1" as="geometry">
            <mxPoint x="110" y="160" as="sourcePoint" />
            <mxPoint x="210" y="170" as="targetPoint" />
          </mxGeometry>
        </mxCell>
        <mxCell id="9MT0wUyi_Ujmcg9wdDqL-78" value="" style="endArrow=classic;html=1;rounded=1;entryX=0.017;entryY=0.352;entryDx=0;entryDy=0;entryPerimeter=0;sketch=1;curveFitting=1;jiggle=2;" parent="1" target="9MT0wUyi_Ujmcg9wdDqL-58" edge="1">
          <mxGeometry width="50" height="50" relative="1" as="geometry">
            <mxPoint x="110" y="160" as="sourcePoint" />
            <mxPoint x="220" y="250" as="targetPoint" />
          </mxGeometry>
        </mxCell>
        <mxCell id="9MT0wUyi_Ujmcg9wdDqL-82" value="Inserir Informações da Corrida" style="whiteSpace=wrap;html=1;rounded=1;sketch=1;curveFitting=1;jiggle=2;" parent="1" vertex="1">
          <mxGeometry x="585" y="32.5" width="225" height="40" as="geometry" />
        </mxCell>
        <mxCell id="9MT0wUyi_Ujmcg9wdDqL-88" value="Include" style="edgeStyle=orthogonalEdgeStyle;rounded=1;orthogonalLoop=1;jettySize=auto;html=1;sketch=1;curveFitting=1;jiggle=2;" parent="1" source="9MT0wUyi_Ujmcg9wdDqL-85" target="9MT0wUyi_Ujmcg9wdDqL-87" edge="1">
          <mxGeometry relative="1" as="geometry" />
        </mxCell>
        <mxCell id="9MT0wUyi_Ujmcg9wdDqL-85" value="Inserir Pilotos" style="whiteSpace=wrap;html=1;rounded=1;sketch=1;curveFitting=1;jiggle=2;" parent="1" vertex="1">
          <mxGeometry x="630" y="125" width="125" height="30" as="geometry" />
        </mxCell>
        <mxCell id="9MT0wUyi_Ujmcg9wdDqL-87" value="Inserir Marcas" style="whiteSpace=wrap;html=1;rounded=1;sketch=1;curveFitting=1;jiggle=2;" parent="1" vertex="1">
          <mxGeometry x="620" y="200" width="145" height="25" as="geometry" />
        </mxCell>
        <mxCell id="9MT0wUyi_Ujmcg9wdDqL-95" value="" style="endArrow=classic;html=1;rounded=1;entryX=0;entryY=0.4;entryDx=0;entryDy=0;entryPerimeter=0;sketch=1;curveFitting=1;jiggle=2;" parent="1" target="9MT0wUyi_Ujmcg9wdDqL-96" edge="1">
          <mxGeometry width="50" height="50" relative="1" as="geometry">
            <mxPoint x="110" y="160" as="sourcePoint" />
            <mxPoint x="210" y="230" as="targetPoint" />
          </mxGeometry>
        </mxCell>
        <mxCell id="9MT0wUyi_Ujmcg9wdDqL-98" value="" style="edgeStyle=orthogonalEdgeStyle;rounded=1;orthogonalLoop=1;jettySize=auto;html=1;sketch=1;curveFitting=1;jiggle=2;" parent="1" source="9MT0wUyi_Ujmcg9wdDqL-96" target="9MT0wUyi_Ujmcg9wdDqL-97" edge="1">
          <mxGeometry relative="1" as="geometry" />
        </mxCell>
        <mxCell id="9MT0wUyi_Ujmcg9wdDqL-99" value="Include" style="edgeLabel;html=1;align=center;verticalAlign=middle;resizable=0;points=[];rounded=1;sketch=1;curveFitting=1;jiggle=2;" parent="9MT0wUyi_Ujmcg9wdDqL-98" vertex="1" connectable="0">
          <mxGeometry x="-0.2103" y="-1" relative="1" as="geometry">
            <mxPoint as="offset" />
          </mxGeometry>
        </mxCell>
        <mxCell id="9MT0wUyi_Ujmcg9wdDqL-96" value="Começo Evento" style="ellipse;whiteSpace=wrap;html=1;rounded=1;sketch=1;curveFitting=1;jiggle=2;" parent="1" vertex="1">
          <mxGeometry x="220" y="280" width="120" height="50" as="geometry" />
        </mxCell>
        <mxCell id="9MT0wUyi_Ujmcg9wdDqL-97" value="Registo do Horário do começo" style="whiteSpace=wrap;html=1;rounded=1;sketch=1;curveFitting=1;jiggle=2;" parent="1" vertex="1">
          <mxGeometry x="610" y="275" width="210" height="60" as="geometry" />
        </mxCell>
        <mxCell id="9MT0wUyi_Ujmcg9wdDqL-104" value="" style="edgeStyle=orthogonalEdgeStyle;rounded=1;orthogonalLoop=1;jettySize=auto;html=1;sketch=1;curveFitting=1;jiggle=2;" parent="1" source="9MT0wUyi_Ujmcg9wdDqL-100" target="9MT0wUyi_Ujmcg9wdDqL-103" edge="1">
          <mxGeometry relative="1" as="geometry" />
        </mxCell>
        <mxCell id="9MT0wUyi_Ujmcg9wdDqL-105" value="Include" style="edgeLabel;html=1;align=center;verticalAlign=middle;resizable=0;points=[];rounded=1;sketch=1;curveFitting=1;jiggle=2;" parent="9MT0wUyi_Ujmcg9wdDqL-104" vertex="1" connectable="0">
          <mxGeometry x="-0.3269" y="-1" relative="1" as="geometry">
            <mxPoint as="offset" />
          </mxGeometry>
        </mxCell>
        <mxCell id="9MT0wUyi_Ujmcg9wdDqL-100" value="Registo dos dados do fim do evento" style="whiteSpace=wrap;html=1;rounded=1;sketch=1;curveFitting=1;jiggle=2;" parent="1" vertex="1">
          <mxGeometry x="645" y="358" width="120" height="60" as="geometry" />
        </mxCell>
        <mxCell id="9MT0wUyi_Ujmcg9wdDqL-103" value="Atualizar Temporada" style="whiteSpace=wrap;html=1;rounded=1;sketch=1;curveFitting=1;jiggle=2;" parent="1" vertex="1">
          <mxGeometry x="645" y="498" width="120" height="60" as="geometry" />
        </mxCell>
      </root>
    </mxGraphModel>
  </diagram>
</mxfile>
